<?xml version="1.0" standalone="no"?>
<!DOCTYPE svg PUBLIC "-//W3C//DTD SVG 20010904//EN"
 "http://www.w3.org/TR/2001/REC-SVG-20010904/DTD/svg10.dtd">
<svg version="1.0" xmlns="http://www.w3.org/2000/svg"
 width="512.000000pt" height="512.000000pt" viewBox="0 0 512.000000 512.000000"
 preserveAspectRatio="xMidYMid meet">
<metadata>
Created by potrace 1.14, written by Peter Selinger 2001-2017
</metadata>
<g transform="translate(0.000000,512.000000) scale(0.100000,-0.100000)"
fill="#000000" stroke="none">
<path d="M1860 4715 l0 -85 -170 0 -170 0 0 -85 0 -85 -85 0 -85 0 0 -85 0
-85 -85 0 -85 0 -2 -172 -3 -173 -35 -2 c-19 -1 -56 -2 -82 -2 l-48 -1 0 -680
0 -680 85 0 85 0 0 -85 0 -85 85 0 85 0 0 -85 0 -85 -340 0 -340 0 0 -85 0
-84 83 -3 82 -3 3 -82 3 -82 82 -3 82 -3 3 -82 3 -83 170 0 169 0 -2 -342 -3
-343 -82 -3 -83 -3 0 -254 0 -255 85 0 85 0 0 -85 0 -85 255 0 255 0 0 85 0
85 598 -2 597 -3 3 -83 3 -82 337 2 337 3 3 83 3 82 -86 0 -85 0 0 255 0 255
253 2 252 3 0 340 0 340 -252 3 -253 2 0 170 0 170 170 0 170 0 0 85 0 85 85
0 85 0 0 85 0 85 85 0 85 0 -2 938 -3 937 -82 3 -82 3 -3 82 -3 82 -82 3 -82
3 -3 82 -3 82 -82 3 -82 3 -3 82 -3 82 -937 3 -938 2 0 -85z m1200 -860 l0
-86 83 3 82 3 3 83 3 82 84 0 85 0 0 -85 0 -86 83 3 82 3 3 83 3 82 84 0 85 0
0 -85 0 -85 85 0 85 0 0 -85 0 -85 85 0 85 0 0 -595 0 -595 -85 0 -85 0 0 -85
0 -85 -1025 0 -1025 0 0 -85 0 -85 -85 0 -85 0 0 -85 0 -85 -85 0 -85 0 0 -85
0 -85 -85 0 -85 0 0 85 0 85 85 0 85 0 0 85 0 85 85 0 85 0 0 85 0 85 85 0 85
0 0 85 0 85 -170 0 -170 0 0 255 0 255 170 0 170 0 0 -170 0 -170 85 0 85 0 0
255 0 255 85 0 85 0 0 85 0 85 85 0 85 0 0 85 0 85 85 0 85 0 0 85 0 85 85 0
85 0 0 85 0 85 85 0 c82 0 85 1 91 25 3 14 4 52 2 85 l-4 60 88 0 88 0 0 -85z
m-5 -1870 l0 -80 -172 -3 -173 -2 0 78 c0 43 3 82 7 86 4 3 81 5 172 4 l166
-3 0 -80z m-1030 -600 l0 -170 -165 0 -165 0 -3 160 c-1 87 0 165 3 172 3 11
40 13 167 11 l163 -3 0 -170z m1033 3 l2 -168 -175 0 -175 0 0 163 c0 90 3
167 7 171 4 3 81 5 172 4 l166 -3 3 -167z m847 -3 l0 -170 -167 -3 -168 -2 0
175 0 175 168 -2 167 -3 0 -170z"/>
<path d="M2540 3175 l0 -85 -85 0 -85 0 0 -85 0 -85 85 0 85 0 0 85 0 85 85 0
84 0 3 -82 3 -83 85 0 85 0 0 80 0 80 -87 3 -88 3 0 84 0 85 -85 0 -85 0 0
-85z"/>
<path d="M3568 3178 l-3 -83 -82 -3 -83 -3 0 -85 0 -85 83 3 82 3 3 83 3 82
84 0 85 0 0 -85 0 -85 85 0 85 0 0 85 0 85 -85 0 -85 0 0 85 0 85 -85 0 -84 0
-3 -82z"/>
</g>
</svg>
